<svg width="1024" height="1024" viewBox="0 0 1024 1024" fill="none" xmlns="http://www.w3.org/2000/svg">
  <defs>
    <linearGradient id="tile" x1="132" y1="88" x2="892" y2="936" gradientUnits="userSpaceOnUse">
      <stop stop-color="#fbfaf7"/>
      <stop offset="1" stop-color="#f0eee9"/>
    </linearGradient>
    <linearGradient id="ink" x1="176" y1="188" x2="822" y2="866" gradientUnits="userSpaceOnUse">
      <stop stop-color="#252a30"/>
      <stop offset="1" stop-color="#111418"/>
    </linearGradient>
    <linearGradient id="teal" x1="176" y1="606" x2="824" y2="862" gradientUnits="userSpaceOnUse">
      <stop stop-color="#0b8192"/>
      <stop offset="1" stop-color="#07596d"/>
    </linearGradient>
    <filter id="tileShadow" x="58" y="58" width="908" height="908" filterUnits="userSpaceOnUse" color-interpolation-filters="sRGB">
      <feDropShadow dx="0" dy="22" stdDeviation="26" flood-color="#101820" flood-opacity="0.13"/>
    </filter>
  </defs>

  <rect x="88" y="88" width="848" height="848" rx="184" fill="url(#tile)" filter="url(#tileShadow)"/>

  <g transform="translate(0 -10)">
    <path
      fill-rule="evenodd"
      clip-rule="evenodd"
      d="M500 224H366C270 224 202 306 202 422C202 538 270 550 366 550H430V464H366C318 464 286 447 286 422C286 360 318 310 366 310H500V224Z"
      fill="url(#ink)"
    />

    <path
      d="M606 620H686L814 836H724L606 620Z"
      fill="url(#teal)"
    />

    <path
      fill-rule="evenodd"
      clip-rule="evenodd"
      d="M512 354H658C758 354 824 420 824 512C824 604 758 670 658 670H606V584H658C706 584 740 553 740 512C740 471 706 440 658 440H512V354Z"
      fill="url(#ink)"
    />

    <path
      d="M462 584H548V848H462V584Z"
      fill="url(#ink)"
    />

    <path
      fill-rule="evenodd"
      clip-rule="evenodd"
      d="M210 638H296V722H426V808H210V638Z"
      fill="url(#teal)"
    />

    <rect x="468" y="484" width="64" height="64" rx="3" fill="#ffb31f"/>
  </g>
</svg>
