<svg width="1024" height="1024" viewBox="0 0 1024 1024" fill="none" xmlns="http://www.w3.org/2000/svg">
  <defs>
    <linearGradient id="tile" x1="164" y1="104" x2="860" y2="920" gradientUnits="userSpaceOnUse">
      <stop stop-color="#fbfaf7"/>
      <stop offset="1" stop-color="#f0eee8"/>
    </linearGradient>
    <linearGradient id="graphite" x1="220" y1="190" x2="760" y2="850" gradientUnits="userSpaceOnUse">
      <stop stop-color="#252a30"/>
      <stop offset="1" stop-color="#111418"/>
    </linearGradient>
    <linearGradient id="teal" x1="215" y1="540" x2="755" y2="860" gradientUnits="userSpaceOnUse">
      <stop stop-color="#0b7f92"/>
      <stop offset="1" stop-color="#07576f"/>
    </linearGradient>
    <filter id="softShadow" x="82" y="82" width="860" height="860" filterUnits="userSpaceOnUse" color-interpolation-filters="sRGB">
      <feDropShadow dx="0" dy="24" stdDeviation="26" flood-color="#101820" flood-opacity="0.14"/>
    </filter>
  </defs>

  <rect x="98" y="98" width="828" height="828" rx="178" fill="url(#tile)" filter="url(#softShadow)"/>

  <g stroke-linecap="butt" stroke-linejoin="round">
    <path
      d="M500 278H360C281 278 220 340 220 419C220 498 281 560 360 560H466"
      stroke="url(#graphite)"
      stroke-width="92"
    />
    <path
      d="M474 456H638C717 456 778 518 778 597C778 676 717 738 638 738H534"
      stroke="url(#graphite)"
      stroke-width="92"
    />
    <path
      d="M504 548V790"
      stroke="url(#graphite)"
      stroke-width="92"
    />
    <path
      d="M214 738H376V644"
      stroke="url(#teal)"
      stroke-width="92"
    />
    <path
      d="M578 654L724 828"
      stroke="url(#teal)"
      stroke-width="92"
    />
  </g>

  <rect x="385" y="566" width="72" height="72" rx="4" fill="#ffb21f"/>
</svg>
